<svg height="512pt" viewBox="-19 0 512 512.001" width="512pt" xmlns="http://www.w3.org/2000/svg"><path d="m469.113281 124.40625-120.019531-120.011719c-2.816406-2.816406-6.628906-4.394531-10.609375-4.394531h-264.984375c-8.285156 0-15 6.714844-15 15v186.09375h-43.5c-8.285156 0-15 6.714844-15 15v183.019531c0 8.285157 6.714844 15 15 15h43.5v82.886719c0 8.285156 6.714844 15 15 15h385.007812c8.285157 0 15-6.714844 15-15v-361.984375c0-3.980469-1.582031-7.796875-4.394531-10.609375zm-115.625-73.191406 68.796875 68.792968h-68.796875zm-323.488281 179.878906h302.003906v153.019531h-302.003906zm58.5 250.90625v-67.886719h258.503906c8.285156 0 15-6.714843 15-15v-183.019531c0-8.285156-6.714844-15-15-15h-258.503906v-171.09375h234.984375v105.007812c0 8.285157 6.71875 15.003907 15 15.003907h105.023437v331.988281zm0 0"/><path d="m97.875 257.765625h-28.980469c-4.902343 0-8.121093 3.082031-8.121093 6.582031v89.039063c0 4.480469 5.460937 6.722656 10.921874 6.722656 5.457032 0 10.917969-2.242187 10.917969-6.722656v-30.242188h13.859375c19.320313 0 34.441406-8.957031 34.441406-32.480469v-.699218c0-23.519532-14.558593-32.199219-33.039062-32.199219zm11.199219 34.582031c0 9.519532-4.757813 14-12.601563 14h-13.859375v-29.542968h13.859375c7.84375 0 12.601563 4.480468 12.601563 14zm0 0"/><path d="m204.554688 257.765625c-5.460938 0-10.921876 1.960937-10.921876 6.582031v47.597656l-22.679687-43.257812c-5.320313-10.222656-8.257813-10.921875-16.097656-10.921875-5.460938 0-10.921875 2.101563-10.921875 6.71875v88.902344c0 4.480469 5.460937 6.722656 10.921875 6.722656 5.457031 0 10.917969-2.242187 10.917969-6.722656v-47.601563l26.601562 48.441406c2.660156 4.898438 7.140625 5.878907 12.179688 5.878907 5.460937 0 10.921874-2.238281 10.921874-6.71875v-89.042969c0-4.617188-5.460937-6.578125-10.921874-6.578125zm0 0"/><path d="m267.414062 276.804688c11.898438 0 12.320313 7.5625 12.460938 12.601562s5.039062 6.578125 10.917969 6.578125c7.421875 0 10.921875-1.957031 10.921875-10.359375 0-17.777344-15.121094-27.859375-35.140625-27.859375-18.339844 0-33.601563 8.960937-33.601563 33.039063v37.101562c0 24.078125 14.980469 33.039062 34.300782 33.039062 19.320312 0 34.441406-8.960937 34.441406-33.039062v-14.699219c0-3.640625-2.382813-6.859375-6.582032-6.859375h-23.519531c-4.199219 0-6.582031 4.339844-6.582031 8.398438 0 4.339844 2.382812 8.398437 6.582031 8.398437h8.257813v4.761719c0 9.519531-4.757813 14-12.597656 14-7.84375 0-12.460938-4.480469-12.460938-14v-37.101562c0-9.519532 4.621094-14 12.601562-14zm0 0"/></svg>